HIERARCHY
ROOT hip
{
  OFFSET 73.4737 83.3735 -29.6108
  CHANNELS 6 Xposition Yposition Zposition Zrotation Xrotation Yrotation
  JOINT abdomen
  {
    OFFSET 0 20.6881 -0.73152
    CHANNELS 3 Zrotation Xrotation Yrotation
    JOINT chest
    {
      OFFSET 0 11.7043 -0.48768
      CHANNELS 3 Zrotation Xrotation Yrotation
      JOINT neck
      {
        OFFSET 0 22.1894 -2.19456
        CHANNELS 3 Zrotation Xrotation Yrotation
        JOINT head
        {
          OFFSET -0.24384 7.07133 1.2192
          CHANNELS 3 Zrotation Xrotation Yrotation
          JOINT leftEye
          {
            OFFSET 4.14528 8.04674 8.04672
            CHANNELS 3 Zrotation Xrotation Yrotation
            End Site
            {
              OFFSET 1 0 0
            }
          }
          JOINT rightEye
          {
            OFFSET -3.6576 8.04674 8.04672
            CHANNELS 3 Zrotation Xrotation Yrotation
            End Site
            {
              OFFSET 1 0 0
            }
          }
        }
      }
      JOINT rCollar
      {
        OFFSET -2.68224 19.2634 -4.8768
        CHANNELS 3 Zrotation Xrotation Yrotation
        JOINT rShldr
        {
          OFFSET -8.77824 -1.95073 1.46304
          CHANNELS 3 Zrotation Xrotation Yrotation
          JOINT rForeArm
          {
            OFFSET -28.1742 -1.7115 0.48768
            CHANNELS 3 Zrotation Xrotation Yrotation
            JOINT rHand
            {
              OFFSET -22.5879 0.773209 7.07136
              CHANNELS 3 Zrotation Xrotation Yrotation
              JOINT rThumb1
              {
                OFFSET -1.2192 -0.487915 3.41376
                CHANNELS 3 Zrotation Xrotation Yrotation
                JOINT rThumb2
                {
                  OFFSET -3.37035 -0.52449 3.41376
                  CHANNELS 3 Zrotation Xrotation Yrotation
                  End Site
                  {
                    OFFSET -1.78271 -1.18214 1.43049
                  }
                }
              }
              JOINT rIndex1
              {
                OFFSET -7.75947 0.938293 5.60832
                CHANNELS 3 Zrotation Xrotation Yrotation
                JOINT rIndex2
                {
                  OFFSET -2.54057 -0.884171 1.56538
                  CHANNELS 3 Zrotation Xrotation Yrotation
                  End Site
                  {
                    OFFSET -1.62519 -0.234802 1.16502
                  }
                }
              }
              JOINT rMid1
              {
                OFFSET -8.24714 1.18213 3.41376
                CHANNELS 3 Zrotation Xrotation Yrotation
                JOINT rMid2
                {
                  OFFSET -3.10165 -0.590103 1.0647
                  CHANNELS 3 Zrotation Xrotation Yrotation
                  End Site
                  {
                    OFFSET -2.48547 -0.328903 0.83742
                  }
                }
              }
              JOINT rRing1
              {
                OFFSET -8.82822 0.546677 1.51678
                CHANNELS 3 Zrotation Xrotation Yrotation
                JOINT rRing2
                {
                  OFFSET -2.60934 -0.819778 -0.0198488
                  CHANNELS 3 Zrotation Xrotation Yrotation
                  End Site
                  {
                    OFFSET -2.33842 -0.294052 0.168128
                  }
                }
              }
              JOINT rPinky1
              {
                OFFSET -8.27202 -0.0477905 -0.4584
                CHANNELS 3 Zrotation Xrotation Yrotation
                JOINT rPinky2
                {
                  OFFSET -1.82734 -0.647385 -0.700984
                  CHANNELS 3 Zrotation Xrotation Yrotation
                  End Site
                  {
                    OFFSET -1.69225 -0.51767 -0.607171
                  }
                }
              }
            }
          }
        }
      }
      JOINT lCollar
      {
        OFFSET 2.68224 19.2634 -4.8768
        CHANNELS 3 Zrotation Xrotation Yrotation
        JOINT lShldr
        {
          OFFSET 8.77824 -1.95073 1.46304
          CHANNELS 3 Zrotation Xrotation Yrotation
          JOINT lForeArm
          {
            OFFSET 28.1742 -1.7115 0.48768
            CHANNELS 3 Zrotation Xrotation Yrotation
            JOINT lHand
            {
              OFFSET 22.5879 0.773209 7.07136
              CHANNELS 3 Zrotation Xrotation Yrotation
              JOINT lThumb1
              {
                OFFSET 1.2192 -0.487915 3.41376
                CHANNELS 3 Zrotation Xrotation Yrotation
                JOINT lThumb2
                {
                  OFFSET 3.37035 -0.52449 3.41376
                  CHANNELS 3 Zrotation Xrotation Yrotation
                  End Site
                  {
                    OFFSET 1.78271 -1.18214 1.43049
                  }
                }
              }
              JOINT lIndex1
              {
                OFFSET 7.75947 0.938293 5.60832
                CHANNELS 3 Zrotation Xrotation Yrotation
                JOINT lIndex2
                {
                  OFFSET 2.54057 -0.884171 1.56538
                  CHANNELS 3 Zrotation Xrotation Yrotation
                  End Site
                  {
                    OFFSET 1.62519 -0.234802 1.16502
                  }
                }
              }
              JOINT lMid1
              {
                OFFSET 8.24714 1.18213 3.41376
                CHANNELS 3 Zrotation Xrotation Yrotation
                JOINT lMid2
                {
                  OFFSET 3.10165 -0.590103 1.0647
                  CHANNELS 3 Zrotation Xrotation Yrotation
                  End Site
                  {
                    OFFSET 2.48547 -0.328903 0.83742
                  }
                }
              }
              JOINT lRing1
              {
                OFFSET 8.82822 0.546677 1.51678
                CHANNELS 3 Zrotation Xrotation Yrotation
                JOINT lRing2
                {
                  OFFSET 2.60934 -0.819778 -0.0198488
                  CHANNELS 3 Zrotation Xrotation Yrotation
                  End Site
                  {
                    OFFSET 2.33842 -0.294052 0.168128
                  }
                }
              }
              JOINT lPinky1
              {
                OFFSET 8.27202 -0.0477905 -0.4584
                CHANNELS 3 Zrotation Xrotation Yrotation
                JOINT lPinky2
                {
                  OFFSET 1.82734 -0.647385 -0.700984
                  CHANNELS 3 Zrotation Xrotation Yrotation
                  End Site
                  {
                    OFFSET 1.69225 -0.51767 -0.607171
                  }
                }
              }
            }
          }
        }
      }
    }
  }
  JOINT rButtock
  {
    OFFSET -8.77824 4.35084 1.2192
    CHANNELS 3 Zrotation Xrotation Yrotation
    JOINT rThigh
    {
      OFFSET 0 -1.70687 -2.19456
      CHANNELS 3 Zrotation Xrotation Yrotation
      JOINT rShin
      {
        OFFSET 0 -36.8199 0.73152
        CHANNELS 3 Zrotation Xrotation Yrotation
        JOINT rFoot
        {
          OFFSET 0.73152 -45.1104 -5.12064
          CHANNELS 3 Zrotation Xrotation Yrotation
          End Site
          {
            OFFSET -1.1221 -3.69964 12.103
          }
        }
      }
    }
  }
  JOINT lButtock
  {
    OFFSET 8.77824 4.35084 1.2192
    CHANNELS 3 Zrotation Xrotation Yrotation
    JOINT lThigh
    {
      OFFSET 0 -1.70687 -2.19456
      CHANNELS 3 Zrotation Xrotation Yrotation
      JOINT lShin
      {
        OFFSET 0 -36.8199 0.73152
        CHANNELS 3 Zrotation Xrotation Yrotation
        JOINT lFoot
        {
          OFFSET -0.73152 -45.1104 -5.12064
          CHANNELS 3 Zrotation Xrotation Yrotation
          End Site
          {
            OFFSET 1.1221 -3.69964 12.103
          }
        }
      }
    }
  }
}
MOTION
Frames:	8
Frame Time:	0.00833333
-88.1111 82.2556 232.737 3.63083 0.0198467 -0.0700108 -4.77303 0.00925687 -0.128166 -1.31325 0.0404284 -0.226878 -1.00326e-013 -7.95139e-016 -1.59028e-015 -3.01087e-013 3.18055e-015 -4.77394e-015 -0 0 0 -0 0 0 -4.94524e-014 -3.14872e-016 -6.95746e-016 -1.04941e-012 -6.60959e-015 -1.96797e-014 -1.80689e-011 5.23221e-012 -1.55847e-013 -2.07466e-010 -6.60154e-012 -3.62901e-012 -4.89272e-010 -2.96737e-012 -8.13904e-012 -8.44969e-010 -5.12069e-012 -1.40525e-011 -4.89267e-010 -2.96587e-012 -8.15494e-012 7.73091 5.47488 0.417314 -4.89272e-010 -2.96716e-012 -8.14222e-012 2.90554 0.965183 0.102902 -4.89266e-010 -2.96696e-012 -8.14381e-012 10.2786 0.731801 0.0259123 -4.89277e-010 -2.96467e-012 -8.13268e-012 2.22167 -0.733487 -0.20892 -4.9645e-014 -3.07107e-016 -1.04362e-015 -1.05156e-012 -6.00702e-015 -2.10712e-014 -1.8162e-011 -5.62819e-012 -1.59028e-013 -2.07369e-010 4.28836e-012 -3.60675e-012 -4.89267e-010 -2.91038e-012 -8.15812e-012 -8.44943e-010 -5.03482e-012 -1.40724e-011 -4.89272e-010 -2.9114e-012 -8.15812e-012 -7.73091 5.47488 -0.417314 -4.89267e-010 -2.90981e-012 -8.15494e-012 -2.90554 0.965183 -0.102902 -4.89272e-010 -2.90971e-012 -8.15653e-012 -10.2786 0.731801 -0.0259123 -4.89266e-010 -2.90862e-012 -8.1613e-012 -2.22167 -0.733487 0.20892 -2.03217e-016 0 -3.88251e-019 -3.15646 -1.94856 0.0347003 -0.00821036 -2.07871 -0.0671947 -0.470806 4.00263 0.134305 2.03217e-016 0 3.88251e-019 -4.0633 -11.8418 0.547644 -0.0161018 15.8338 -0.442591 0.592869 -4.01611 0.0187168 
-88.2836 80.9981 222.974 1.12137 2.15824 46.3447 -4.98103 -2.4892 -1.69136 -0.746174 1.69395 -0.632296 -1.35135 5.05829 -0.70101 4.13758 -13.3646 -0.0997978 -0 0 0 -0 0 0 -4.47371e-015 2.29839e-013 1.27192e-013 22.8852 -0.625758 -0.844061 -3.46794 -1.45098 5.54452 0.201555 9.98931 1.32814 5.09261e-010 3.91637e-010 -2.00971e-009 8.22232e-010 7.05383e-010 -3.49033e-009 5.09266e-010 3.91638e-010 -2.00973e-009 7.73091 5.47488 0.417314 5.0926e-010 3.91637e-010 -2.00971e-009 2.90554 0.965183 0.102902 5.09267e-010 3.91637e-010 -2.00972e-009 10.2786 0.731801 0.0259123 5.09255e-010 3.9164e-010 -2.0097e-009 2.22167 -0.733487 -0.20892 -4.70449e-015 2.29845e-013 1.26872e-013 -22.9891 -0.946005 -1.69513 1.65252 -0.54138 -2.76362 -0.409698 14.2863 -1.7899 -2.98905e-009 -1.10743e-009 -3.98083e-010 -5.159e-009 -1.87119e-009 -5.80265e-010 -2.98906e-009 -1.10743e-009 -3.98082e-010 -7.73091 5.47488 -0.417314 -2.98905e-009 -1.10743e-009 -3.98081e-010 -2.90554 0.965183 -0.102902 -2.98905e-009 -1.10743e-009 -3.98083e-010 -10.2786 0.731801 -0.0259123 -2.98905e-009 -1.10743e-009 -3.98088e-010 -2.22167 -0.733487 0.20892 -2.03217e-016 0 -3.88251e-019 -4.24721 -11.5425 -1.53217 0.068846 4.78539 0.239102 -0.37404 2.26806 2.10321 2.03217e-016 0 3.88251e-019 -3.79112 -10.1116 -0.75792 -0.0487396 16.0089 -0.697191 0.55951 -6.65411 -1.59894 
-88.3397 81.0113 222.955 -3.2675 -0.593989 95.2888 -5.3535 -5.13355 -3.35474 -0.120974 3.4431 -1.06218 -2.64512 10.3991 -1.45858 8.4548 -27.478 -0.221452 -0 0 0 -0 0 0 4.46462e-014 4.8748e-013 2.76065e-013 47.059 -1.25806 -1.73256 -6.83535 -2.94275 11.4254 -0.119614 20.5071 2.87009 1.59517e-009 8.47634e-010 -4.26508e-009 2.63315e-009 1.52501e-009 -7.40651e-009 1.59518e-009 8.47635e-010 -4.26508e-009 7.73091 5.47488 0.417314 1.59517e-009 8.47635e-010 -4.26507e-009 2.90554 0.965183 0.102902 1.59518e-009 8.47635e-010 -4.26508e-009 10.2786 0.731801 0.0259123 1.59517e-009 8.47637e-010 -4.26506e-009 2.22167 -0.733487 -0.20892 4.43718e-014 4.87484e-013 2.75773e-013 -47.3578 -1.8864 -3.51028 3.34423 -1.11013 -5.68845 0.256389 29.3022 -4.08895 -5.803e-009 -2.35078e-009 -8.56041e-010 -1.00161e-008 -3.97216e-009 -1.25075e-009 -5.80301e-009 -2.35079e-009 -8.5604e-010 -7.73091 5.47488 -0.417314 -5.803e-009 -2.35079e-009 -8.5604e-010 -2.90554 0.965183 -0.102902 -5.803e-009 -2.35079e-009 -8.56042e-010 -10.2786 0.731801 -0.0259123 -5.80299e-009 -2.35078e-009 -8.56048e-010 -2.22167 -0.733487 0.20892 -2.03217e-016 0 -3.88251e-019 -6.014 -21.6754 -3.36684 0.0692013 12.0521 0.573919 -0.140691 0.405716 4.1761 2.03217e-016 0 3.88251e-019 -3.41753 -8.28319 -2.12695 -0.0815081 16.1938 -0.967059 0.35956 -9.4344 -3.33923 
-88.2832 81.0243 222.939 -3.26608 -7.03651 138.668 -5.8085 -7.46282 -4.85419 0.458437 4.99972 -1.44781 -3.6714 15.1656 -2.17046 12.2367 -40.0931 -0.380767 -0 0 0 -0 0 0 8.54837e-014 6.90148e-013 3.82968e-013 68.6004 -1.87564 -2.53339 -9.57259 -4.19017 16.6741 -0.964433 29.8984 4.52759 2.50633e-009 1.18085e-009 -6.01286e-009 4.15663e-009 2.12639e-009 -1.04429e-008 2.50633e-009 1.18085e-009 -6.01287e-009 7.73091 5.47488 0.417314 2.50632e-009 1.18085e-009 -6.01286e-009 2.90554 0.965183 0.102902 2.50633e-009 1.18085e-009 -6.01286e-009 10.2786 0.731801 0.0259123 2.50632e-009 1.18085e-009 -6.01285e-009 2.22167 -0.733487 -0.20892 8.51766e-014 6.90149e-013 3.82702e-013 -69.1352 -2.82808 -5.09092 4.80143 -1.60903 -8.29379 2.25936 42.6602 -7.08431 -7.98861e-009 -3.31646e-009 -1.17793e-009 -1.37871e-008 -5.60351e-009 -1.71265e-009 -7.98862e-009 -3.31648e-009 -1.17793e-009 -7.73091 5.47488 -0.417314 -7.98861e-009 -3.31648e-009 -1.17793e-009 -2.90554 0.965183 -0.102902 -7.98862e-009 -3.31648e-009 -1.17793e-009 -10.2786 0.731801 -0.0259123 -7.9886e-009 -3.31648e-009 -1.17794e-009 -2.22167 -0.733487 0.20892 -2.03217e-016 0 -3.88251e-019 -8.22124 -30.6339 -5.3166 -0.00639584 18.5116 0.895442 0.176409 -1.18989 6.03804 2.03217e-016 0 3.88251e-019 -3.00867 -6.64151 -3.33281 -0.109146 16.3581 -1.20775 0.0374678 -11.8953 -4.90747 
-88.4935 81.0452 223.058 0.61292 -11.1237 169.329 -6.17562 -9.0266 -5.90864 0.873473 6.0762 -1.7185 -4.30077 18.5052 -2.70475 14.798 -48.9627 -0.570722 -0 0 0 -0 0 0 1.05615e-013 7.55381e-013 3.84946e-013 83.5955 -2.45779 -3.11417 -11.3208 -4.98358 20.3029 -1.97481 36.5373 5.97742 2.98058e-009 1.20709e-009 -6.49171e-009 4.96155e-009 2.18216e-009 -1.12798e-008 2.98059e-009 1.20709e-009 -6.49171e-009 7.73091 5.47488 0.417314 2.98058e-009 1.20709e-009 -6.4917e-009 2.90554 0.965183 0.102902 2.98059e-009 1.20709e-009 -6.49171e-009 10.2786 0.731801 0.0259123 2.98057e-009 1.2071e-009 -6.4917e-009 2.22167 -0.733487 -0.20892 1.05302e-013 7.5538e-013 3.84698e-013 -84.3276 -3.78173 -6.08146 5.78279 -1.94782 -10.0976 5.07781 52.0434 -10.3794 -8.60337e-009 -3.58799e-009 -1.15966e-009 -1.48429e-008 -6.06085e-009 -1.65309e-009 -8.60339e-009 -3.58801e-009 -1.15966e-009 -7.73091 5.47488 -0.417314 -8.60337e-009 -3.58801e-009 -1.15966e-009 -2.90554 0.965183 -0.102902 -8.60338e-009 -3.58801e-009 -1.15966e-009 -10.2786 0.731801 -0.0259123 -8.60337e-009 -3.58801e-009 -1.15967e-009 -2.22167 -0.733487 0.20892 -2.03217e-016 0 -3.88251e-019 -10.1831 -36.7481 -6.94488 -0.105974 22.9551 1.13928 0.442812 -2.13342 7.36837 2.03217e-016 0 3.88251e-019 -2.67838 -5.47083 -4.15271 -0.127408 16.4718 -1.37454 -0.262343 -13.5892 -5.98267 
-88.5822 81.0803 223.054 2.88707 -11.961 -178.483 -6.28197 -9.51703 -6.31916 1.04191 6.48017 -1.8271 -4.50719 19.8607 -2.94556 15.7395 -52.6131 -0.735382 -0 0 0 -0 0 0 9.38308e-014 5.97158e-013 1.96419e-013 89.4341 -3.02075 -3.39132 -11.9282 -5.24616 21.6313 -2.53476 39.4121 6.70371 2.82952e-009 6.82554e-010 -4.84338e-009 4.74659e-009 1.26258e-009 -8.43249e-009 2.82953e-009 6.82554e-010 -4.84338e-009 7.73091 5.47488 0.417314 2.82952e-009 6.82553e-010 -4.84337e-009 2.90554 0.965183 0.102902 2.82953e-009 6.82552e-010 -4.84338e-009 10.2786 0.731801 0.0259123 2.82952e-009 6.82554e-010 -4.84337e-009 2.22167 -0.733487 -0.20892 9.35587e-014 5.97157e-013 1.96176e-013 -90.2732 -4.9539 -6.22104 6.1356 -2.06772 -10.758 6.93561 56.2299 -12.4157 -6.60801e-009 -2.69476e-009 -5.01481e-010 -1.13839e-008 -4.54714e-009 -5.97919e-010 -6.60802e-009 -2.69477e-009 -5.01474e-010 -7.73091 5.47488 -0.417314 -6.60801e-009 -2.69478e-009 -5.01479e-010 -2.90554 0.965183 -0.102902 -6.60801e-009 -2.69478e-009 -5.01482e-010 -10.2786 0.731801 -0.0259123 -6.608e-009 -2.69478e-009 -5.01491e-010 -2.22167 -0.733487 0.20892 -2.03217e-016 0 -3.88251e-019 -10.9917 -38.9305 -7.59681 -0.155849 24.5598 1.23775 0.516787 -2.10818 7.96233 2.03217e-016 0 3.88251e-019 -2.53053 -4.95003 -4.43645 -0.134028 16.5144 -1.43702 -0.379559 -14.2201 -6.31621 
-88.6102 81.1131 223.002 2.53885 -11.6673 -179.798 -6.17309 -9.24586 -6.26311 1.02876 6.40403 -1.81902 -4.44509 19.8007 -2.96185 15.5746 -52.5345 -0.838146 -0 0 0 -0 0 0 5.93891e-014 2.80803e-013 -1.26107e-013 88.7379 -3.56898 -3.45125 -11.7735 -5.15898 21.311 -2.55065 39.6165 6.74589 2.23246e-009 -2.29641e-010 -1.69234e-009 3.8038e-009 -3.43591e-010 -2.98238e-009 2.23247e-009 -2.29642e-010 -1.69234e-009 7.73091 5.47488 0.417314 2.23246e-009 -2.29644e-010 -1.69233e-009 2.90554 0.965183 0.102902 2.23247e-009 -2.29646e-010 -1.69233e-009 10.2786 0.731801 0.0259123 2.23246e-009 -2.29645e-010 -1.69232e-009 2.22167 -0.733487 -0.20892 5.91899e-014 2.80801e-013 -1.26352e-013 -89.5785 -6.27673 -5.75303 6.05072 -2.03431 -10.6022 7.1244 56.7904 -12.6628 -2.76783e-009 -9.78741e-010 6.05978e-010 -4.73404e-009 -1.64113e-009 1.15575e-009 -2.76784e-009 -9.7875e-010 6.05988e-010 -7.73091 5.47488 -0.417314 -2.76783e-009 -9.78751e-010 6.05982e-010 -2.90554 0.965183 -0.102902 -2.76784e-009 -9.78752e-010 6.05979e-010 -10.2786 0.731801 -0.0259123 -2.76783e-009 -9.78751e-010 6.05966e-010 -2.22167 -0.733487 0.20892 -2.03217e-016 0 -3.88251e-019 -10.7519 -38.3301 -7.3835 -0.149218 24.1383 1.22124 0.430132 -1.39769 8.02883 2.03217e-016 0 3.88251e-019 -2.53018 -4.89326 -4.33817 -0.132683 16.5065 -1.4249 -0.333851 -14.0973 -6.11063 
-88.6302 81.1359 222.965 1.20923 -10.9466 173.497 -5.98992 -8.69713 -6.01579 0.933736 6.13755 -1.76148 -4.27326 19.1628 -2.88437 14.9931 -50.926 -0.892856 -0 0 0 -0 0 0 2.05675e-014 -4.91295e-014 -4.32456e-013 85.4412 -4.06431 -3.41633 -11.3173 -4.93451 20.3452 -2.32424 38.6997 6.48841 1.47885e-009 -1.10324e-009 1.49874e-009 2.5921e-009 -1.88604e-009 2.54088e-009 1.47886e-009 -1.10324e-009 1.49873e-009 7.73091 5.47488 0.417314 1.47885e-009 -1.10324e-009 1.49873e-009 2.90554 0.965183 0.102902 1.47886e-009 -1.10324e-009 1.49874e-009 10.2786 0.731801 0.0259123 1.47884e-009 -1.10324e-009 1.49874e-009 2.22167 -0.733487 -0.20892 2.04418e-014 -4.91309e-014 -4.32705e-013 -86.1636 -7.34934 -5.07571 5.80742 -1.94702 -10.1508 6.42155 55.6333 -11.9561 1.15276e-009 7.57675e-010 1.63127e-009 2.05062e-009 1.29793e-009 2.76393e-009 1.15275e-009 7.57672e-010 1.63129e-009 -7.73091 5.47488 -0.417314 1.15276e-009 7.57672e-010 1.63128e-009 -2.90554 0.965183 -0.102902 1.15275e-009 7.57671e-010 1.63128e-009 -10.2786 0.731801 -0.0259123 1.15276e-009 7.5767e-010 1.63126e-009 -2.22167 -0.733487 0.20892 -2.03217e-016 0 -3.88251e-019 -10.1266 -36.6557 -6.85012 -0.120991 22.9347 1.15991 0.295587 -0.521918 7.86243 2.03217e-016 0 3.88251e-019 -2.59029 -5.03619 -4.09031 -0.128216 16.4788 -1.3836 -0.2312 -13.6878 -5.71114 
